<svg width="206" height="266" viewBox="0 0 206 266" fill="none" xmlns="http://www.w3.org/2000/svg">
<g clip-path="url(#clip0_11_441)">
<path d="M125.807 52.474C140.37 52.474 152.043 40.7998 152.043 26.2371C152.043 11.6743 140.37 0 125.807 0C111.244 0 99.5699 11.6743 99.5699 26.2371C99.5699 40.7998 111.244 52.474 125.807 52.474ZM84.6462 157.181L130.741 183.057L101.014 208.572C94.6355 213.989 94.7559 221.09 98.6072 225.422C102.579 229.874 109.68 230.958 116.299 225.301L157.821 189.918C163.478 185.103 162.635 174.753 155.775 170.301L110.642 140.693L119.549 109.522C120.752 105.068 125.927 104.467 128.575 108.318L141.814 127.695C144.944 132.149 150.6 133.953 155.775 131.546L193.927 114.576C200.667 111.568 203.194 105.67 200.306 99.5322C197.297 93.5146 191.52 91.7093 184.78 94.7182L154.571 108.077L133.751 79.3129C122.918 64.3891 109.439 58.251 87.2939 59.936L45.05 62.9448C38.3101 63.4262 33.7367 67.759 32.7738 74.7394L27.1173 117.585C26.0341 125.047 29.765 130.222 36.3844 130.944C43.1243 131.546 47.457 127.695 48.4198 120.233L53.5949 85.2102L70.5648 84.0067C74.2957 83.6456 78.0268 86.2933 76.7028 90.9871L66.8338 125.408C61.0569 145.748 74.2957 151.284 84.6462 157.181ZM4.12975 261.167C8.58282 264.897 15.4429 265.379 21.581 259.482L60.5755 220.848C63.825 217.598 64.5472 216.877 66.5931 211.822L82.9612 169.458L78.9895 167.291C69.8426 162.356 63.464 157.302 59.1312 151.886L44.8091 202.554L4.37045 242.873C-2.00827 249.131 -0.804739 256.834 4.12975 261.167Z" fill="white" fill-opacity="0.85"/>
</g>
<defs>
<clipPath id="clip0_11_441">
<rect width="206" height="265.62" fill="white"/>
</clipPath>
</defs>
</svg>
